<?xml version="1.0" encoding="utf-8"?>
<!-- Generator: Adobe Illustrator 18.1.0, SVG Export Plug-In . SVG Version: 6.00 Build 0)  -->
<!DOCTYPE svg PUBLIC "-//W3C//DTD SVG 1.1//EN" "http://www.w3.org/Graphics/SVG/1.1/DTD/svg11.dtd">
<svg version="1.1" id="Layer_1" xmlns="http://www.w3.org/2000/svg" xmlns:xlink="http://www.w3.org/1999/xlink" x="0px" y="0px"
	 viewBox="0 0 700 300" enable-background="new 0 0 700 300" xml:space="preserve">
<g>
	<title>Cogs</title>
</g>
<g>
	<g id="XMLID_1_">
		<g>
			<path fill="#666666" d="M500.1,213.5v23.2l-16.6,4.2c-1.4,4.9-3.3,9.6-5.9,14.1l8.9,14.8l-16.4,16.3l-15-8.9
				c-4.5,2.6-9.1,4.5-14.1,5.9l-4.2,16.9h-23.2l-4.2-16.6c-4.9-1.4-9.6-3.3-14.1-5.9l-14.8,8.9L364.1,270l8.9-15
				c-2.6-4.5-4.5-9.1-5.9-14.1l-16.9-4.2v-23.2l16.6-4.2c1.4-4.9,3.3-9.6,5.9-14.1l-8.9-14.8l16.4-16.4l15,8.9
				c4.5-2.6,9.1-4.5,14.1-5.9l4.2-16.9h23.2l4.2,16.6c4.9,1.4,9.6,3.3,14.1,5.9l14.8-8.9l16.4,16.4l-8.9,15
				c2.6,4.5,4.5,9.1,5.9,14.1L500.1,213.5z M465,225.2c0-22-17.8-39.8-39.8-39.8s-39.8,17.8-39.8,39.8s17.8,39.8,39.8,39.8
				S465,247.2,465,225.2z"/>
			<path fill="#C6FFE6" d="M401.8,125.4l-12.2,29.3l-23.4-3.3c-4.2,5.4-9.1,10.3-14.8,14.8l3.5,23.4l-29.3,12.2l-14.3-19
				c-7,0.9-13.8,0.9-20.9,0l-14.1,19l-29.3-12.2l3.3-23.4c-5.4-4.2-10.3-9.1-14.8-14.8l-23.4,3.5l-12.2-29.3l19-14.3
				c-0.9-7-0.9-13.8,0-20.9l-19-14.1L212.1,47l23.4,3.3c4.2-5.4,9.1-10.3,14.8-14.8l-3.5-23.3L276,0l14.3,19c7-0.9,13.8-0.9,20.9,0
				l14.1-19l29.3,12.2l-3.3,23.4c5.4,4.2,10.3,9.1,14.8,14.8l23.4-3.5l12.2,29.3l-19,14.3c0.9,7,0.9,13.8,0,20.9L401.8,125.4z
				 M321.8,151.4c27.9-11.5,41-43.4,29.5-71.2c-11.5-27.7-43.4-41-71.2-29.5c-27.7,11.5-41,43.4-29.5,71
				C262.2,149.5,294,162.9,321.8,151.4z"/>
		</g>
	</g>
</g>
<g transform="scale(4)" display="none">
	<path display="inline" d="M23.9,49.3c0.2-1.6,0.2-3.3,0-4.9l5.2-4.5L26.8,34L20,34.5c-0.9-1.4-2.1-2.6-3.5-3.5l0.5-6.8l-6-2.3
		L6.5,27c-1.6-0.2-3.3-0.2-4.9,0l-4.5-5.2l-5.9,2.3l0.5,6.8c-1.4,0.9-2.6,2.1-3.5,3.5l-6.8-0.5l-2.3,5.9l5.2,4.5
		c-0.2,1.6-0.2,3.3,0,4.9l-5.2,4.5l2.3,5.9l6.8-0.5c0.9,1.4,2.1,2.6,3.5,3.5l-0.5,6.8l5.9,2.3l4.5-5.2c1.6,0.2,3.3,0.2,4.9,0
		l4.5,5.2l5.9-2.3l-0.5-6.8c1.4-0.9,2.6-2.1,3.5-3.5l6.8,0.5l2.3-5.9L23.9,49.3z M8.2,57.3C2.3,59.6-4.3,57-6.6,51.2
		s0.2-12.4,6.1-14.8s12.4,0.2,14.8,6.1C16.6,48.4,13.8,54.9,8.2,57.3z"/>
	<path display="inline" d="M53.9,80.2v-4.7l-4.7-1.6c-0.2-1.2-0.7-2.3-1.4-3.3l2.1-4.5l-3.3-3.3L42.1,65c-0.9-0.7-2.1-1.2-3.3-1.4
		l-1.6-4.7h-4.7l-1.6,4.7c-1.2,0.2-2.3,0.7-3.3,1.4l-4.5-2.1l-3.3,3.3l2.1,4.5c-0.7,0.9-1.2,2.1-1.4,3.3l-4.7,1.6v4.7l4.7,1.6
		c0.2,1.2,0.7,2.3,1.4,3.3l-2.1,4.5l3.3,3.3l4.5-2.1c0.9,0.7,2.1,1.2,3.3,1.4l1.6,4.7h4.7l1.6-4.7c1.2-0.2,2.3-0.7,3.3-1.4l4.5,2.1
		l3.3-3.3l-2.1-4.5c0.7-0.9,1.2-2.1,1.4-3.3L53.9,80.2L53.9,80.2z M35.1,86.1c-4.5,0-8.2-3.7-8.2-8.2s3.7-8.2,8.2-8.2
		s8.2,3.8,8.2,8.2C43.3,82.3,39.6,86.1,35.1,86.1z"/>
</g>
<g transform="scale(8)" display="none">
	<path display="inline" d="M10.5,23.4c0-0.5,0-0.9,0-1.4l0,0l2.1-2.6l-1.2-2.8l-3.3-0.2l0,0c-0.2-0.2-0.7-0.7-0.9-0.9V12l-2.8-1.2
		L1.9,13c-0.5,0-0.9,0-1.4,0l0,0l-2.6-1.9l-2.8,1.2l-0.2,3.3l0,0c-0.2,0.2-0.7,0.7-0.9,0.9h-3.5l-1.2,2.8l2.3,2.6c0,0.5,0,0.9,0,1.4
		l0,0l-2.1,2.6l1.2,2.8l3.3,0.2l0,0c0.2,0.2,0.7,0.7,0.9,0.9v3.5l2.8,1.2l2.6-2.3c0.5,0,0.9,0,1.4,0l0,0l2.6,2.1L7,33.2l0.2-3.3l0,0
		c0.2-0.2,0.7-0.7,0.9-0.9h3.5l1.2-2.8L10.5,23.4L10.5,23.4z M2.8,26.6c-2.3,0.9-4.9-0.2-5.9-2.3C-4,22-2.9,19.4-0.8,18.4
		c2.3-0.9,4.9,0.2,5.9,2.3C6.1,23.1,5.1,25.7,2.8,26.6z"/>
	<path display="inline" d="M26.9,40.2v-2.3l-2.3-1.2l0,0c0-0.2-0.2-0.7-0.5-0.9l0.9-2.6l-1.9-1.9l-2.6,0.9c-0.2-0.2-0.7-0.2-0.9-0.5
		l0,0l-1.2-2.3h-2.3L15,31.8l0,0c-0.2,0-0.7,0.2-0.9,0.5l-2.6-0.9l-1.9,1.9l0.9,2.6c-0.2,0.2-0.2,0.7-0.5,0.9l0,0L7.7,38v2.3
		l2.3,1.2l0,0c0,0.2,0.2,0.7,0.5,0.9L9.6,45l1.9,1.9l2.6-0.9c0.2,0.2,0.7,0.2,0.9,0.5l0,0l1.2,2.3h2.3l1.2-2.3l0,0
		c0.2,0,0.7-0.2,0.9-0.5l2.6,0.9l1.9-1.9l-0.9-2.6c0.2-0.2,0.2-0.7,0.5-0.9l0,0L26.9,40.2L26.9,40.2z M17.6,42.6
		c-1.9,0-3.5-1.6-3.5-3.5s1.6-3.5,3.5-3.5s3.5,1.6,3.5,3.5C21.1,40.9,19.4,42.6,17.6,42.6z"/>
</g>
</svg>
