<?xml version="1.0" encoding="utf-8"?>
<!-- Generator: Adobe Illustrator 18.1.0, SVG Export Plug-In . SVG Version: 6.00 Build 0)  -->
<!DOCTYPE svg PUBLIC "-//W3C//DTD SVG 1.1//EN" "http://www.w3.org/Graphics/SVG/1.1/DTD/svg11.dtd">
<svg version="1.1" id="Layer_1" xmlns="http://www.w3.org/2000/svg" xmlns:xlink="http://www.w3.org/1999/xlink" x="0px" y="0px"
	 viewBox="0 0 700 300" enable-background="new 0 0 700 300" xml:space="preserve">
<g>
	<title>Script</title>
</g>
<g transform="translate(12)">
	<g>
		<g>
			<g>
				<defs>
					<path id="SVGID_1_" d="M216.1,0v300h243.8V0H216.1z M234.9,278.9c0,1.4-0.9,2.3-2.3,2.3s-2.3-0.9-2.3-2.3V178.1
						c0-1.4,0.9-2.3,2.3-2.3s2.3,0.9,2.3,2.3V278.9z M450.5,84.4H248.9V21.1c0-1.4,0.9-2.3,2.3-2.3c1.4,0,2.3,0.9,2.3,2.3v58.6
						h196.9c1.4,0,2.3,0.9,2.3,2.3S451.9,84.4,450.5,84.4z"/>
				</defs>
				<clipPath id="SVGID_2_">
					<use xlink:href="#SVGID_1_"  overflow="visible"/>
				</clipPath>
				<path clip-path="url(#SVGID_2_)" fill="#C6FFE6" d="M441.1,0H253.6c-10.3,0-18.8,8.4-18.8,18.8v201.6H216v60.9
					c0,10.3,8.4,18.8,18.8,18.8h187.5c10.3,0,18.8-8.4,18.8-18.8V79.7h18.8V18.8C459.9,8.4,451.4,0,441.1,0z"/>
			</g>
		</g>
	</g>
</g>
<g transform="scale(4) translate(1)" display="none">
	<g display="inline">
		<g>
			<g>
				<defs>
					<path id="SVGID_3_" d="M-19.8,21.9v75h68v-75C48.2,21.9-19.8,21.9-19.8,21.9z M-10.4,88.4c0,0.7-0.5,1.2-1.2,1.2
						s-1.2-0.5-1.2-1.2V66.2c0-0.7,0.5-1.2,1.2-1.2s1.2,0.5,1.2,1.2V88.4z M43.5,43H-5.7V30.1c0-0.7,0.5-1.2,1.2-1.2
						s1.2,0.5,1.2,1.2v10.5h46.9c0.7,0,1.2,0.5,1.2,1.2C44.7,42.5,44,43,43.5,43z"/>
				</defs>
				<clipPath id="SVGID_4_">
					<use xlink:href="#SVGID_3_"  overflow="visible"/>
				</clipPath>
				<path clip-path="url(#SVGID_4_)" d="M41.1,21.9H-3.4c-4,0-7,3-7,7v46.9h-7v14.1c0,4,3,7,7,7h44.5c4,0,7-3,7-7V40.6h7V28.9
					C48.2,24.9,44.9,21.9,41.1,21.9z"/>
			</g>
		</g>
	</g>
</g>
<g transform="scale(8)" display="none">
	<g display="inline">
		<g>
			<g>
				<defs>
					<path id="SVGID_5_" d="M-10.6,10.9v37.5h35.2V10.9H-10.6z M-5.9,42.6c0,0.7-0.5,1.2-1.2,1.2s-1.2-0.5-1.2-1.2v-9.4
						c0-0.7,0.5-1.2,1.2-1.2s1.2,0.5,1.2,1.2C-5.9,33.2-5.9,42.6-5.9,42.6z M21.1,25H-3.5v-8.2c0-0.7,0.5-1.2,1.2-1.2
						s1.2,0.5,1.2,1.2v5.9h22.3c0.7,0,1.2,0.5,1.2,1.2C22.2,24.5,21.8,25,21.1,25z"/>
				</defs>
				<clipPath id="SVGID_6_">
					<use xlink:href="#SVGID_5_"  overflow="visible"/>
				</clipPath>
				<path clip-path="url(#SVGID_6_)" d="M19.9,10.9H-1.2c-2.6,0-4.7,2.1-4.7,4.7v21.1h-4.7V44l0,0c0.2,2.3,2.1,4.5,4.7,4.5h21.1
					c2.6,0,4.7-2.1,4.7-4.7V22.7h4.7v-7C24.6,13,22.5,10.9,19.9,10.9z"/>
			</g>
		</g>
	</g>
</g>
</svg>
