<?xml version="1.0" encoding="utf-8"?>
<!-- Generator: Adobe Illustrator 18.1.0, SVG Export Plug-In . SVG Version: 6.00 Build 0)  -->
<!DOCTYPE svg PUBLIC "-//W3C//DTD SVG 1.1//EN" "http://www.w3.org/Graphics/SVG/1.1/DTD/svg11.dtd">
<svg version="1.1" id="Layer_1" xmlns="http://www.w3.org/2000/svg" xmlns:xlink="http://www.w3.org/1999/xlink" x="0px" y="0px"
	 viewBox="0 0 700 300" enable-background="new 0 0 700 300" xml:space="preserve">
<g>
	<title>Tools</title>
</g>
<g>
	<path fill="#666666" d="M237.7,47.2L372.5,182l9.4-9.4L247.1,37.8l-4.7-19L209.4,0L200,9.4l19,33L237.7,47.2z"/>
	<path fill="#666666" d="M490.6,253.2l-84.4-84.4h-9.4l-4.7-4.7v-4.7l-4.7-4.7l-32.8,32.8l4.7,4.7h4.7l4.7,4.7v9.4l84.4,84.4
		c4.9,5.9,12.2,9.4,20.2,9.4c14.8,0,26.5-12,26.5-26.5C500,265.4,496.2,258.1,490.6,253.2z M461.8,285.3c-0.5,0.5-1.2,0.7-1.6,0.7
		c-0.4,0-1.2-0.2-1.6-0.7l-79.7-79.7c-0.9-0.9-0.9-2.3,0-3.3c0.9-0.9,2.3-0.9,3.3,0l79.7,79.7C462.7,283,462.7,284.4,461.8,285.3z
		 M475.9,276c-0.5,0.5-1.2,0.7-1.6,0.7c-0.4,0-1.2-0.2-1.6-0.7L393,196.3c-0.9-0.9-0.9-2.3,0-3.3c0.9-0.9,2.3-0.9,3.3,0l79.7,79.7
		C476.8,273.6,476.8,275,475.9,276z M485.2,261.9c-0.5,0.5-1.2,0.7-1.6,0.7c-0.4,0-1.2-0.2-1.6-0.7l-79.7-79.7
		c-0.9-0.9-0.9-2.3,0-3.3c0.9-0.9,2.3-0.9,3.3,0l79.7,79.7C486.2,259.6,486.2,261,485.2,261.9z"/>
	<g>
		<g>
			<defs>
				<path id="SVGID_1_" d="M200,0.1v300h300V0.1H200z M379.3,198.4L218.8,37.8l9.4-9.4l160.5,160.5L379.3,198.4z M388.9,188.8
					L237.7,37.6l9.4-9.4l151.2,151.2L388.9,188.8z"/>
			</defs>
			<clipPath id="SVGID_2_">
				<use xlink:href="#SVGID_1_"  overflow="visible"/>
			</clipPath>
			<g id="XMLID_1_" clip-path="url(#SVGID_2_)">
				<g>
					<path fill="#C6FFE6" d="M499.1,74.2c0.5,0.5,0.5,1.4-0.2,1.4L463,111.4c-0.5,0.5-1.2,0.5-1.6,0L460,110c0,0-4.7-4.7-7-7
						c-9.4-9.4,0.2-13.8-9.4-23.4c-9.6-9.6-14.3-9.1-28.1,4.7L364.8,135c1.6-2.6,1.3-6.3-1.1-8.7l-8.9-8.9c-2.8-2.8-7-2.8-9.6-0.3
						l51.5-51.5c9.1-9.1,28.1-37.3-37.5-65.6c56.2,0,65.6,0,93.8,28.1c9.4,9.4,4.7,18.8,14.1,28.1c9.4,9.4,14.1,0,23.4,9.4
						c1.6,1.6,4,4,5.6,5.6L499.1,74.2z"/>
					<path fill="#C6FFE6" d="M363.6,126.2c2.5,2.4,2.8,6.1,1.1,8.7L331,168.6l-18.8-18.8L345,117c0,0,0,0,0.1-0.1
						c2.6-2.5,6.8-2.5,9.6,0.3L363.6,126.2z"/>
					<path fill="#C6FFE6" d="M331,168.6l33.7-33.7c-0.2,0.4-0.6,0.8-0.9,1.1c-2.6,2.6-5.9,7.7-7,11.5l-4.7,14.5
						c-1.4,3.8-4.5,8.9-7.3,11.7l-93,93c-2.8,2.8-6.8,7.5-8.9,10.8l-11,16.6c-2.1,3.3-5.4,3-7-0.5L203.1,250
						c-1.6-3.5-0.9-8.4,1.9-11.2l102.6-102.5c2.8-2.8,8-6.1,11.7-7.3l14.8-4.9c3.5-1.2,8.4-4.4,11-7l-32.8,32.8L331,168.6z"/>
				</g>
			</g>
		</g>
	</g>
</g>
<g transform="scale(4)" display="none">
	<path display="inline" d="M-11.8,33.6l37.5,37.5l2.3-2.3L-9.4,31.2l-2.3-4.7l-7-4.7l-2.3,2.3l4.7,7L-11.8,33.6z"/>
	<path display="inline" d="M51.5,85.1l-21.1-21h-2.3l-2.3-2.3l-7,7l2.3,2.3v2.3l21.1,21.1c1.2,1.4,3,2.3,5.2,2.3
		c3.7,0,6.6-3,6.6-6.6C53.9,88,52.9,86.3,51.5,85.1z"/>
	<g display="inline">
		<g>
			<g>
				<defs>
					<path id="SVGID_3_" d="M-21.1,21.9v75h75v-75C53.9,21.9-21.1,21.9-21.1,21.9z M25.7,71.1l-2.3,2.3l-39.8-39.8l2.3-2.3l4.7-4.7
						l39.8,39.8L25.7,71.1z"/>
				</defs>
				<clipPath id="SVGID_4_">
					<use xlink:href="#SVGID_3_"  overflow="visible"/>
				</clipPath>
				<path clip-path="url(#SVGID_4_)" d="M51.5,38.3c-2.3-2.3-2.3,0-4.7-2.3s0-2.3-2.3-4.7S42.2,29,42.2,29c-7-7-9.4-7-23.4-7
					c16.4,7,11.7,14.1,9.4,16.4L7,59.4l4.7,4.7L32.8,43c2.3-2.3,4.7-2.3,7,0s0,2.3,2.3,4.7s2.3,2.3,2.3,2.3l9.4-9.4
					C53.9,40.6,53.9,40.6,51.5,38.3z"/>
			</g>
		</g>
	</g>
	<g display="inline">
		<g>
			<g>
				<defs>
					<path id="SVGID_5_" d="M-21.1,21.9v75h75v-75C53.9,21.9-21.1,21.9-21.1,21.9z M25.7,71.1l-2.3,2.3l-39.8-39.8l2.3-2.3l4.7-4.7
						l39.8,39.8L25.7,71.1z"/>
				</defs>
				<clipPath id="SVGID_6_">
					<use xlink:href="#SVGID_5_"  overflow="visible"/>
				</clipPath>
				<path clip-path="url(#SVGID_6_)" d="M12.9,52.6L8,54.2c-0.7,0.2-1.4,0.7-1.9,1.2l-26.5,26.5c-0.5,0.5-0.7,1.4-0.2,1.9l6.1,12
					c0.2,0.5,0.7,0.7,1.2,0l3.5-5.2c0.5-0.5,0.9-1.4,1.4-1.9l24.1-24.1c0.5-0.5,0.9-1.4,1.2-1.9l1.6-4.7c0.2-0.7,0.7-1.4,1.2-1.9
					l0.7-0.7c0.5-0.5,0.5-1.2,0-1.6l-3-3c-0.5-0.5-1.2-0.5-1.6,0L15,51.4C14.3,51.9,13.3,52.3,12.9,52.6L12.9,52.6z"/>
			</g>
		</g>
	</g>
</g>
<g transform="scale(8)" display="none">
	<path display="inline" d="M-1.2,22.7l14.1,14.1l2.3-2.3l-14-14.2v-4.7l-9.4-4.7l-2.3,2.3l4.7,9.4h4.6V22.7z"/>
	<path display="inline" d="M26,42.8l-12-12l-4.7,4.7l12,12c1.4,1.4,3.3,1.4,4.7,0C27.2,46.1,27.2,44,26,42.8L26,42.8z"/>
	<g display="inline">
		<g>
			<g>
				<defs>
					<path id="SVGID_7_" d="M-10.6,10.9v37.5h37.5V10.9H-10.6z M12.9,32l-4.7,4.7l-14.1-14l4.7-4.7l2.3-2.3l14.1,14.1L12.9,32z"/>
				</defs>
				<clipPath id="SVGID_8_">
					<use xlink:href="#SVGID_7_"  overflow="visible"/>
				</clipPath>
				<path clip-path="url(#SVGID_8_)" d="M22.2,15.6c-4.7-4.7-7-4.7-14.1-4.7c7,2.3,7,6.8,4.7,9.4l-9.4,9.4L5.8,32l9.4-9.4l0,0
					c2.3-2.3,2.3-2.3,4.7,0c1.2,1.2,0,0,1.2,1.2s1.2,1.2,1.2,1.2l4.7-4.7C26.9,20.3,24.6,18,22.2,15.6L22.2,15.6z"/>
			</g>
		</g>
	</g>
	<g display="inline">
		<g>
			<g>
				<defs>
					<path id="SVGID_9_" d="M-10.6,10.9v37.5h37.5V10.9H-10.6z M12.9,32l-4.7,4.7l-14.1-14l4.7-4.7l2.3-2.3l14.1,14.1L12.9,32z"/>
				</defs>
				<clipPath id="SVGID_10_">
					<use xlink:href="#SVGID_9_"  overflow="visible"/>
				</clipPath>
				<path clip-path="url(#SVGID_10_)" d="M6.3,26.9c-0.2,0.2-0.7,0.5-0.9,0.5H4.2c-0.2,0-0.7,0.2-0.9,0.5l-13.2,13
					c-0.2,0.2-0.2,0.7,0,0.9l4,6.1c0.2,0.2,0.5,0.2,0.7,0l1.9-3.8c0.2-0.2,0.5-0.7,0.7-0.9L8.2,32.5c0.2-0.2,0.5-0.7,0.5-0.9v-1.2
					c0-0.2,0.2-0.7,0.5-0.9l1.6-1.6c0.2-0.2,0.2-0.7,0-0.9l-1.4-1.4c-0.2-0.2-0.7-0.2-0.9,0L6.3,26.9L6.3,26.9z"/>
			</g>
		</g>
	</g>
</g>
</svg>
